G04 EAGLE Gerber RS-274X export*
G75*
%MOMM*%
%FSLAX34Y34*%
%LPD*%
%INBottom Copper*%
%IPPOS*%
%AMOC8*
5,1,8,0,0,1.08239X$1,22.5*%
G01*
%ADD10C,2.500000*%
%ADD11C,5.800000*%
%ADD12C,1.108000*%
%ADD13C,0.756400*%
%ADD14C,0.508000*%

G36*
X113038Y4574D02*
X113038Y4574D01*
X113045Y4573D01*
X113135Y4594D01*
X113227Y4612D01*
X113233Y4617D01*
X113241Y4619D01*
X113389Y4721D01*
X118469Y9801D01*
X118473Y9808D01*
X118479Y9812D01*
X118528Y9891D01*
X118580Y9968D01*
X118581Y9976D01*
X118585Y9983D01*
X118617Y10160D01*
X118617Y269240D01*
X118616Y269248D01*
X118617Y269255D01*
X118596Y269345D01*
X118578Y269437D01*
X118573Y269443D01*
X118571Y269451D01*
X118469Y269599D01*
X113389Y274679D01*
X113382Y274683D01*
X113378Y274689D01*
X113299Y274738D01*
X113222Y274790D01*
X113214Y274791D01*
X113207Y274795D01*
X113030Y274827D01*
X-113030Y274827D01*
X-113038Y274826D01*
X-113045Y274827D01*
X-113135Y274806D01*
X-113227Y274788D01*
X-113233Y274783D01*
X-113241Y274781D01*
X-113389Y274679D01*
X-118469Y269599D01*
X-118473Y269592D01*
X-118479Y269588D01*
X-118528Y269509D01*
X-118580Y269432D01*
X-118581Y269424D01*
X-118585Y269417D01*
X-118617Y269240D01*
X-118617Y10160D01*
X-118616Y10152D01*
X-118617Y10145D01*
X-118596Y10055D01*
X-118578Y9964D01*
X-118573Y9957D01*
X-118571Y9949D01*
X-118469Y9801D01*
X-113389Y4721D01*
X-113382Y4717D01*
X-113378Y4711D01*
X-113299Y4662D01*
X-113222Y4610D01*
X-113214Y4609D01*
X-113207Y4605D01*
X-113030Y4573D01*
X113030Y4573D01*
X113038Y4574D01*
G37*
%LPC*%
G36*
X-80845Y82549D02*
X-80845Y82549D01*
X-104141Y105845D01*
X-104141Y191335D01*
X-94101Y201374D01*
X-94097Y201381D01*
X-94091Y201385D01*
X-94042Y201464D01*
X-93990Y201541D01*
X-93989Y201549D01*
X-93985Y201555D01*
X-93953Y201733D01*
X-93953Y201918D01*
X-92990Y204242D01*
X-91212Y206020D01*
X-90058Y206498D01*
X-88888Y206983D01*
X-86372Y206983D01*
X-84048Y206020D01*
X-82270Y204242D01*
X-81307Y201918D01*
X-81307Y199402D01*
X-82270Y197078D01*
X-84048Y195300D01*
X-84147Y195259D01*
X-85371Y194752D01*
X-86372Y194337D01*
X-86557Y194337D01*
X-86565Y194336D01*
X-86573Y194337D01*
X-86663Y194316D01*
X-86754Y194298D01*
X-86760Y194293D01*
X-86768Y194291D01*
X-86916Y194189D01*
X-93831Y187274D01*
X-93835Y187267D01*
X-93841Y187263D01*
X-93890Y187184D01*
X-93942Y187107D01*
X-93943Y187099D01*
X-93947Y187093D01*
X-93979Y186915D01*
X-93979Y110265D01*
X-93978Y110257D01*
X-93979Y110249D01*
X-93958Y110159D01*
X-93940Y110068D01*
X-93935Y110062D01*
X-93933Y110054D01*
X-93831Y109906D01*
X-76784Y92859D01*
X-76777Y92855D01*
X-76773Y92849D01*
X-76694Y92800D01*
X-76617Y92748D01*
X-76609Y92747D01*
X-76603Y92743D01*
X-76425Y92711D01*
X73885Y92711D01*
X73893Y92712D01*
X73901Y92711D01*
X73991Y92732D01*
X74082Y92750D01*
X74088Y92755D01*
X74096Y92757D01*
X74244Y92859D01*
X96371Y114986D01*
X96375Y114993D01*
X96381Y114997D01*
X96430Y115076D01*
X96482Y115153D01*
X96483Y115161D01*
X96487Y115167D01*
X96519Y115345D01*
X96519Y128009D01*
X96518Y128017D01*
X96519Y128024D01*
X96498Y128114D01*
X96480Y128205D01*
X96475Y128212D01*
X96473Y128220D01*
X96371Y128368D01*
X96240Y128498D01*
X95277Y130822D01*
X95277Y133338D01*
X96240Y135662D01*
X98018Y137440D01*
X98191Y137512D01*
X98192Y137512D01*
X99416Y138019D01*
X100342Y138403D01*
X102858Y138403D01*
X105182Y137440D01*
X106960Y135662D01*
X107923Y133338D01*
X107923Y130822D01*
X106960Y128498D01*
X106829Y128368D01*
X106825Y128361D01*
X106819Y128356D01*
X106770Y128278D01*
X106718Y128201D01*
X106717Y128193D01*
X106713Y128186D01*
X106681Y128009D01*
X106681Y110925D01*
X78305Y82549D01*
X-80845Y82549D01*
G37*
%LPD*%
%LPC*%
G36*
X-15228Y125757D02*
X-15228Y125757D01*
X-17552Y126720D01*
X-19330Y128498D01*
X-20293Y130822D01*
X-20293Y133338D01*
X-19330Y135662D01*
X-17552Y137440D01*
X-17379Y137512D01*
X-17378Y137512D01*
X-16154Y138019D01*
X-15228Y138403D01*
X-12712Y138403D01*
X-10388Y137440D01*
X-10258Y137309D01*
X-10251Y137305D01*
X-10246Y137299D01*
X-10168Y137250D01*
X-10091Y137198D01*
X-10083Y137197D01*
X-10076Y137193D01*
X-9899Y137161D01*
X5305Y137161D01*
X5313Y137162D01*
X5321Y137161D01*
X5411Y137182D01*
X5502Y137200D01*
X5508Y137205D01*
X5516Y137207D01*
X5664Y137309D01*
X8741Y140386D01*
X8745Y140393D01*
X8751Y140397D01*
X8800Y140476D01*
X8852Y140553D01*
X8853Y140561D01*
X8857Y140567D01*
X8889Y140745D01*
X8889Y254225D01*
X8888Y254233D01*
X8889Y254241D01*
X8868Y254331D01*
X8850Y254422D01*
X8845Y254428D01*
X8843Y254436D01*
X8741Y254584D01*
X6934Y256391D01*
X6927Y256395D01*
X6923Y256401D01*
X6844Y256450D01*
X6767Y256502D01*
X6759Y256503D01*
X6753Y256507D01*
X6575Y256539D01*
X5341Y256539D01*
X5333Y256538D01*
X5326Y256539D01*
X5236Y256518D01*
X5145Y256500D01*
X5138Y256495D01*
X5130Y256493D01*
X4982Y256391D01*
X4852Y256260D01*
X4536Y256129D01*
X3312Y255622D01*
X3311Y255622D01*
X2528Y255297D01*
X12Y255297D01*
X-2312Y256260D01*
X-4090Y258038D01*
X-5053Y260362D01*
X-5053Y262878D01*
X-4090Y265202D01*
X-2312Y266980D01*
X-1376Y267368D01*
X-1375Y267368D01*
X-151Y267875D01*
X12Y267943D01*
X2528Y267943D01*
X4852Y266980D01*
X4982Y266849D01*
X4989Y266845D01*
X4994Y266839D01*
X5072Y266790D01*
X5149Y266738D01*
X5157Y266737D01*
X5164Y266733D01*
X5341Y266701D01*
X10995Y266701D01*
X19051Y258645D01*
X19051Y136325D01*
X9725Y126999D01*
X-9899Y126999D01*
X-9907Y126998D01*
X-9914Y126999D01*
X-10004Y126978D01*
X-10095Y126960D01*
X-10102Y126955D01*
X-10110Y126953D01*
X-10258Y126851D01*
X-10388Y126720D01*
X-11467Y126273D01*
X-12691Y125766D01*
X-12692Y125766D01*
X-12712Y125757D01*
X-15228Y125757D01*
G37*
%LPD*%
%LPC*%
G36*
X73208Y29409D02*
X73208Y29409D01*
X67680Y31699D01*
X63449Y35930D01*
X61159Y41458D01*
X61159Y47442D01*
X63449Y52970D01*
X67680Y57201D01*
X68079Y57366D01*
X68080Y57366D01*
X69304Y57874D01*
X70529Y58381D01*
X71753Y58888D01*
X72978Y59395D01*
X73208Y59491D01*
X79192Y59491D01*
X84720Y57201D01*
X88951Y52970D01*
X91241Y47442D01*
X91241Y41458D01*
X88951Y35930D01*
X84720Y31699D01*
X84040Y31417D01*
X82815Y30910D01*
X81591Y30403D01*
X80366Y29896D01*
X79192Y29409D01*
X73208Y29409D01*
G37*
%LPD*%
%LPC*%
G36*
X-79192Y29409D02*
X-79192Y29409D01*
X-84720Y31699D01*
X-88951Y35930D01*
X-91241Y41458D01*
X-91241Y47442D01*
X-88951Y52970D01*
X-84720Y57201D01*
X-84321Y57366D01*
X-84320Y57366D01*
X-83096Y57874D01*
X-81871Y58381D01*
X-80647Y58888D01*
X-79422Y59395D01*
X-79192Y59491D01*
X-73208Y59491D01*
X-67680Y57201D01*
X-63449Y52970D01*
X-61159Y47442D01*
X-61159Y41458D01*
X-63449Y35930D01*
X-67680Y31699D01*
X-68360Y31417D01*
X-69585Y30910D01*
X-70809Y30403D01*
X-72034Y29896D01*
X-73208Y29409D01*
X-79192Y29409D01*
G37*
%LPD*%
D10*
X-76200Y44450D03*
X-25400Y44450D03*
X25400Y44450D03*
X76200Y44450D03*
D11*
X-162560Y31750D03*
D12*
X-162560Y53750D03*
X-162560Y9750D03*
X-184560Y31750D03*
X-140560Y31750D03*
X-147060Y47250D03*
X-147060Y16250D03*
X-178060Y47250D03*
X-178060Y16250D03*
D11*
X-162560Y247650D03*
D12*
X-162560Y269650D03*
X-162560Y225650D03*
X-184560Y247650D03*
X-140560Y247650D03*
X-147060Y263150D03*
X-147060Y232150D03*
X-178060Y263150D03*
X-178060Y232150D03*
D11*
X161290Y31750D03*
D12*
X161290Y53750D03*
X161290Y9750D03*
X139290Y31750D03*
X183290Y31750D03*
X176790Y47250D03*
X176790Y16250D03*
X145790Y47250D03*
X145790Y16250D03*
D11*
X161290Y247650D03*
D12*
X161290Y269650D03*
X161290Y225650D03*
X139290Y247650D03*
X183290Y247650D03*
X176790Y263150D03*
X176790Y232150D03*
X145790Y263150D03*
X145790Y232150D03*
D13*
X-87630Y200660D03*
D14*
X-99060Y189230D01*
X-99060Y107950D01*
X-78740Y87630D01*
X76200Y87630D01*
X101600Y113030D01*
X101600Y132080D01*
D13*
X101600Y132080D03*
X1270Y261620D03*
D14*
X8890Y261620D02*
X13970Y256540D01*
X8890Y261620D02*
X1270Y261620D01*
X13970Y256540D02*
X13970Y138430D01*
X7620Y132080D01*
X-13970Y132080D01*
D13*
X-13970Y132080D03*
X-30480Y186690D03*
X-30480Y179070D03*
X-30480Y171450D03*
X-22860Y186690D03*
X-22860Y179070D03*
X-22860Y171450D03*
X-15240Y186690D03*
X-15240Y179070D03*
X-15240Y171450D03*
X-7620Y186690D03*
X-7620Y179070D03*
X-7620Y171450D03*
X-85090Y184150D03*
X-74930Y184150D03*
X-64770Y184150D03*
X-54610Y184150D03*
X-80010Y175260D03*
X-69850Y175260D03*
X-59690Y175260D03*
X-49530Y175260D03*
X-49530Y157480D03*
X-85090Y166370D03*
X-74930Y166370D03*
X-64770Y166370D03*
X-54610Y166370D03*
X-80010Y157480D03*
X-69850Y157480D03*
X-59690Y157480D03*
X-85090Y147320D03*
X-74930Y147320D03*
X-64770Y147320D03*
X-54610Y147320D03*
X52070Y116840D03*
X52070Y107950D03*
X52070Y99060D03*
X43180Y116840D03*
X43180Y107950D03*
X43180Y99060D03*
M02*
