M48
;GenerationSoftware,Autodesk,EAGLE,9.6.0*%
;CreationDate,2020-06-28T13:47:42Z*%
FMAT,2
ICI,OFF
METRIC,TZ,000.000
T5C0.350
T4C0.508
T3C0.600
T2C1.300
T1C3.100
%
G90
M71
T1
X-16256Y24765
X16129Y3175
X16129Y24765
X-16256Y3175
T2
X-2540Y4445
X-7620Y4445
X2540Y4445
X7620Y4445
T3
X14579Y23215
X14579Y26315
X17679Y23215
X17679Y26315
X18329Y24765
X13929Y24765
X16129Y22565
X16129Y26965
X14579Y1625
X14579Y4725
X18329Y3175
X17679Y1625
X17679Y4725
X13929Y3175
X-14706Y23215
X-14706Y26315
X-14056Y24765
X-18456Y24765
X-16256Y22565
X-16256Y26965
X16129Y5375
X-17806Y1625
X-17806Y4725
X-14706Y1625
X-14706Y4725
X-14056Y3175
X-18456Y3175
X-16256Y975
X-16256Y5375
X16129Y975
X-17806Y26315
X-17806Y23215
T4
X-12700Y4928
X-12700Y5791
X-12700Y22149
X-12700Y23012
X-12700Y23876
X-12700Y24740
X-12700Y25603
X-12700Y26467
X-12700Y27330
X12700Y22149
X12700Y23012
X12700Y23876
X12700Y24740
X12700Y25603
X12700Y26467
X12700Y27330
X12700Y610
X12700Y1473
X12700Y2337
X12700Y3200
X12700Y4064
X12700Y4928
X12700Y5791
X-12700Y610
X-12700Y1473
X-12700Y2337
X-12700Y3200
X-12700Y4064
T5
X-8763Y20066
X10160Y13208
X4318Y9906
X4318Y10795
X4318Y11684
X5207Y9906
X5207Y10795
X5207Y11684
X-5461Y14732
X-6477Y14732
X-7493Y14732
X-8509Y14732
X-5969Y15748
X-6985Y15748
X-8001Y15748
X-5461Y16637
X-6477Y16637
X-7493Y16637
X-8509Y16637
X-4953Y15748
X-4953Y17526
X-5969Y17526
X-6985Y17526
X-8001Y17526
X-5461Y18415
X-6477Y18415
X-7493Y18415
X-8509Y18415
X-762Y18669
X-762Y17145
X-762Y17907
X-1524Y17145
X-1524Y17907
X-1524Y18669
X-2286Y17145
X-2286Y17907
X-2286Y18669
X-3048Y17145
X-3048Y17907
X-3048Y18669
X-1397Y13208
X127Y26162
M30