G04 EAGLE Gerber RS-274X export*
G75*
%MOMM*%
%FSLAX34Y34*%
%LPD*%
%IN*%
%IPPOS*%
%AMOC8*
5,1,8,0,0,1.08239X$1,22.5*%
G01*
%ADD10C,0.254000*%


D10*
X-194310Y31750D02*
X-194189Y28983D01*
X-193828Y26237D01*
X-193228Y23533D01*
X-192395Y20891D01*
X-191335Y18332D01*
X-190056Y15875D01*
X-188568Y13539D01*
X-186882Y11342D01*
X-185011Y9299D01*
X-182969Y7428D01*
X-180771Y5742D01*
X-178435Y4254D01*
X-175978Y2975D01*
X-173419Y1915D01*
X-170778Y1082D01*
X-168073Y482D01*
X-165327Y121D01*
X-162560Y0D01*
X161290Y0D01*
X164057Y121D01*
X166803Y482D01*
X169508Y1082D01*
X172149Y1915D01*
X174708Y2975D01*
X177165Y4254D01*
X179501Y5742D01*
X181699Y7428D01*
X183741Y9299D01*
X185612Y11342D01*
X187298Y13539D01*
X188786Y15875D01*
X190065Y18332D01*
X191125Y20891D01*
X191958Y23533D01*
X192558Y26237D01*
X192919Y28983D01*
X193040Y31750D01*
X192919Y34517D01*
X192558Y37263D01*
X191958Y39968D01*
X191125Y42609D01*
X190065Y45168D01*
X188786Y47625D01*
X187298Y49961D01*
X185612Y52159D01*
X183741Y54201D01*
X181699Y56072D01*
X179501Y57758D01*
X177165Y59246D01*
X174708Y60525D01*
X172149Y61585D01*
X169508Y62418D01*
X166803Y63018D01*
X164057Y63379D01*
X161290Y63500D01*
X129540Y63500D01*
X129319Y63510D01*
X129099Y63539D01*
X128883Y63587D01*
X128671Y63653D01*
X128467Y63738D01*
X128270Y63840D01*
X128083Y63959D01*
X127907Y64094D01*
X127744Y64244D01*
X127594Y64407D01*
X127459Y64583D01*
X127340Y64770D01*
X127238Y64967D01*
X127153Y65171D01*
X127087Y65383D01*
X127039Y65599D01*
X127010Y65819D01*
X127000Y66040D01*
X127000Y213360D01*
X127010Y213581D01*
X127039Y213801D01*
X127087Y214017D01*
X127153Y214229D01*
X127238Y214433D01*
X127340Y214630D01*
X127459Y214817D01*
X127594Y214993D01*
X127744Y215156D01*
X127907Y215306D01*
X128083Y215441D01*
X128270Y215560D01*
X128467Y215662D01*
X128671Y215747D01*
X128883Y215813D01*
X129099Y215861D01*
X129319Y215890D01*
X129540Y215900D01*
X161290Y215900D01*
X164057Y216021D01*
X166803Y216382D01*
X169508Y216982D01*
X172149Y217815D01*
X174708Y218875D01*
X177165Y220154D01*
X179501Y221642D01*
X181699Y223328D01*
X183741Y225199D01*
X185612Y227242D01*
X187298Y229439D01*
X188786Y231775D01*
X190065Y234232D01*
X191125Y236791D01*
X191958Y239433D01*
X192558Y242137D01*
X192919Y244883D01*
X193040Y247650D01*
X192919Y250417D01*
X192558Y253163D01*
X191958Y255868D01*
X191125Y258509D01*
X190065Y261068D01*
X188786Y263525D01*
X187298Y265861D01*
X185612Y268059D01*
X183741Y270101D01*
X181699Y271972D01*
X179501Y273658D01*
X177165Y275146D01*
X174708Y276425D01*
X172149Y277485D01*
X169508Y278318D01*
X166803Y278918D01*
X164057Y279279D01*
X161290Y279400D01*
X-162560Y279400D01*
X-165327Y279279D01*
X-168073Y278918D01*
X-170778Y278318D01*
X-173419Y277485D01*
X-175978Y276425D01*
X-178435Y275146D01*
X-180771Y273658D01*
X-182969Y271972D01*
X-185011Y270101D01*
X-186882Y268059D01*
X-188568Y265861D01*
X-190056Y263525D01*
X-191335Y261068D01*
X-192395Y258509D01*
X-193228Y255868D01*
X-193828Y253163D01*
X-194189Y250417D01*
X-194310Y247650D01*
X-194189Y244883D01*
X-193828Y242137D01*
X-193228Y239433D01*
X-192395Y236791D01*
X-191335Y234232D01*
X-190056Y231775D01*
X-188568Y229439D01*
X-186882Y227242D01*
X-185011Y225199D01*
X-182969Y223328D01*
X-180771Y221642D01*
X-178435Y220154D01*
X-175978Y218875D01*
X-173419Y217815D01*
X-170778Y216982D01*
X-168073Y216382D01*
X-165327Y216021D01*
X-162560Y215900D01*
X-129540Y215900D01*
X-129319Y215890D01*
X-129099Y215861D01*
X-128883Y215813D01*
X-128671Y215747D01*
X-128467Y215662D01*
X-128270Y215560D01*
X-128083Y215441D01*
X-127907Y215306D01*
X-127744Y215156D01*
X-127594Y214993D01*
X-127459Y214817D01*
X-127340Y214630D01*
X-127238Y214433D01*
X-127153Y214229D01*
X-127087Y214017D01*
X-127039Y213801D01*
X-127010Y213581D01*
X-127000Y213360D01*
X-127000Y66040D01*
X-127010Y65819D01*
X-127039Y65599D01*
X-127087Y65383D01*
X-127153Y65171D01*
X-127238Y64967D01*
X-127340Y64770D01*
X-127459Y64583D01*
X-127594Y64407D01*
X-127744Y64244D01*
X-127907Y64094D01*
X-128083Y63959D01*
X-128270Y63840D01*
X-128467Y63738D01*
X-128671Y63653D01*
X-128883Y63587D01*
X-129099Y63539D01*
X-129319Y63510D01*
X-129540Y63500D01*
X-162560Y63500D01*
X-165327Y63379D01*
X-168073Y63018D01*
X-170778Y62418D01*
X-173419Y61585D01*
X-175978Y60525D01*
X-178435Y59246D01*
X-180771Y57758D01*
X-182969Y56072D01*
X-185011Y54201D01*
X-186882Y52159D01*
X-188568Y49961D01*
X-190056Y47625D01*
X-191335Y45168D01*
X-192395Y42609D01*
X-193228Y39968D01*
X-193828Y37263D01*
X-194189Y34517D01*
X-194310Y31750D01*
X-124460Y221288D02*
X-124523Y220893D01*
X-124646Y220513D01*
X-124828Y220157D01*
X-125063Y219833D01*
X-125345Y219551D01*
X-125669Y219316D01*
X-126025Y219134D01*
X-126405Y219011D01*
X-126800Y218948D01*
X-127200Y218948D01*
X-127595Y219011D01*
X-127975Y219134D01*
X-128331Y219316D01*
X-128655Y219551D01*
X-128937Y219833D01*
X-129172Y220157D01*
X-129354Y220513D01*
X-129477Y220893D01*
X-129540Y221288D01*
X-129540Y221688D01*
X-129477Y222083D01*
X-129354Y222463D01*
X-129172Y222819D01*
X-128937Y223143D01*
X-128655Y223425D01*
X-128331Y223660D01*
X-127975Y223842D01*
X-127595Y223965D01*
X-127200Y224028D01*
X-126800Y224028D01*
X-126405Y223965D01*
X-126025Y223842D01*
X-125669Y223660D01*
X-125345Y223425D01*
X-125063Y223143D01*
X-124828Y222819D01*
X-124646Y222463D01*
X-124523Y222083D01*
X-124460Y221688D01*
X-124460Y221288D01*
X-124460Y229924D02*
X-124523Y229529D01*
X-124646Y229149D01*
X-124828Y228793D01*
X-125063Y228469D01*
X-125345Y228187D01*
X-125669Y227952D01*
X-126025Y227770D01*
X-126405Y227647D01*
X-126800Y227584D01*
X-127200Y227584D01*
X-127595Y227647D01*
X-127975Y227770D01*
X-128331Y227952D01*
X-128655Y228187D01*
X-128937Y228469D01*
X-129172Y228793D01*
X-129354Y229149D01*
X-129477Y229529D01*
X-129540Y229924D01*
X-129540Y230324D01*
X-129477Y230719D01*
X-129354Y231099D01*
X-129172Y231455D01*
X-128937Y231779D01*
X-128655Y232061D01*
X-128331Y232296D01*
X-127975Y232478D01*
X-127595Y232601D01*
X-127200Y232664D01*
X-126800Y232664D01*
X-126405Y232601D01*
X-126025Y232478D01*
X-125669Y232296D01*
X-125345Y232061D01*
X-125063Y231779D01*
X-124828Y231455D01*
X-124646Y231099D01*
X-124523Y230719D01*
X-124460Y230324D01*
X-124460Y229924D01*
X-124460Y238560D02*
X-124523Y238165D01*
X-124646Y237785D01*
X-124828Y237429D01*
X-125063Y237105D01*
X-125345Y236823D01*
X-125669Y236588D01*
X-126025Y236406D01*
X-126405Y236283D01*
X-126800Y236220D01*
X-127200Y236220D01*
X-127595Y236283D01*
X-127975Y236406D01*
X-128331Y236588D01*
X-128655Y236823D01*
X-128937Y237105D01*
X-129172Y237429D01*
X-129354Y237785D01*
X-129477Y238165D01*
X-129540Y238560D01*
X-129540Y238960D01*
X-129477Y239355D01*
X-129354Y239735D01*
X-129172Y240091D01*
X-128937Y240415D01*
X-128655Y240697D01*
X-128331Y240932D01*
X-127975Y241114D01*
X-127595Y241237D01*
X-127200Y241300D01*
X-126800Y241300D01*
X-126405Y241237D01*
X-126025Y241114D01*
X-125669Y240932D01*
X-125345Y240697D01*
X-125063Y240415D01*
X-124828Y240091D01*
X-124646Y239735D01*
X-124523Y239355D01*
X-124460Y238960D01*
X-124460Y238560D01*
X-124460Y247196D02*
X-124523Y246801D01*
X-124646Y246421D01*
X-124828Y246065D01*
X-125063Y245741D01*
X-125345Y245459D01*
X-125669Y245224D01*
X-126025Y245042D01*
X-126405Y244919D01*
X-126800Y244856D01*
X-127200Y244856D01*
X-127595Y244919D01*
X-127975Y245042D01*
X-128331Y245224D01*
X-128655Y245459D01*
X-128937Y245741D01*
X-129172Y246065D01*
X-129354Y246421D01*
X-129477Y246801D01*
X-129540Y247196D01*
X-129540Y247596D01*
X-129477Y247991D01*
X-129354Y248371D01*
X-129172Y248727D01*
X-128937Y249051D01*
X-128655Y249333D01*
X-128331Y249568D01*
X-127975Y249750D01*
X-127595Y249873D01*
X-127200Y249936D01*
X-126800Y249936D01*
X-126405Y249873D01*
X-126025Y249750D01*
X-125669Y249568D01*
X-125345Y249333D01*
X-125063Y249051D01*
X-124828Y248727D01*
X-124646Y248371D01*
X-124523Y247991D01*
X-124460Y247596D01*
X-124460Y247196D01*
X-124460Y255832D02*
X-124523Y255437D01*
X-124646Y255057D01*
X-124828Y254701D01*
X-125063Y254377D01*
X-125345Y254095D01*
X-125669Y253860D01*
X-126025Y253678D01*
X-126405Y253555D01*
X-126800Y253492D01*
X-127200Y253492D01*
X-127595Y253555D01*
X-127975Y253678D01*
X-128331Y253860D01*
X-128655Y254095D01*
X-128937Y254377D01*
X-129172Y254701D01*
X-129354Y255057D01*
X-129477Y255437D01*
X-129540Y255832D01*
X-129540Y256232D01*
X-129477Y256627D01*
X-129354Y257007D01*
X-129172Y257363D01*
X-128937Y257687D01*
X-128655Y257969D01*
X-128331Y258204D01*
X-127975Y258386D01*
X-127595Y258509D01*
X-127200Y258572D01*
X-126800Y258572D01*
X-126405Y258509D01*
X-126025Y258386D01*
X-125669Y258204D01*
X-125345Y257969D01*
X-125063Y257687D01*
X-124828Y257363D01*
X-124646Y257007D01*
X-124523Y256627D01*
X-124460Y256232D01*
X-124460Y255832D01*
X-124460Y264468D02*
X-124523Y264073D01*
X-124646Y263693D01*
X-124828Y263337D01*
X-125063Y263013D01*
X-125345Y262731D01*
X-125669Y262496D01*
X-126025Y262314D01*
X-126405Y262191D01*
X-126800Y262128D01*
X-127200Y262128D01*
X-127595Y262191D01*
X-127975Y262314D01*
X-128331Y262496D01*
X-128655Y262731D01*
X-128937Y263013D01*
X-129172Y263337D01*
X-129354Y263693D01*
X-129477Y264073D01*
X-129540Y264468D01*
X-129540Y264868D01*
X-129477Y265263D01*
X-129354Y265643D01*
X-129172Y265999D01*
X-128937Y266323D01*
X-128655Y266605D01*
X-128331Y266840D01*
X-127975Y267022D01*
X-127595Y267145D01*
X-127200Y267208D01*
X-126800Y267208D01*
X-126405Y267145D01*
X-126025Y267022D01*
X-125669Y266840D01*
X-125345Y266605D01*
X-125063Y266323D01*
X-124828Y265999D01*
X-124646Y265643D01*
X-124523Y265263D01*
X-124460Y264868D01*
X-124460Y264468D01*
X-124460Y273104D02*
X-124523Y272709D01*
X-124646Y272329D01*
X-124828Y271973D01*
X-125063Y271649D01*
X-125345Y271367D01*
X-125669Y271132D01*
X-126025Y270950D01*
X-126405Y270827D01*
X-126800Y270764D01*
X-127200Y270764D01*
X-127595Y270827D01*
X-127975Y270950D01*
X-128331Y271132D01*
X-128655Y271367D01*
X-128937Y271649D01*
X-129172Y271973D01*
X-129354Y272329D01*
X-129477Y272709D01*
X-129540Y273104D01*
X-129540Y273504D01*
X-129477Y273899D01*
X-129354Y274279D01*
X-129172Y274635D01*
X-128937Y274959D01*
X-128655Y275241D01*
X-128331Y275476D01*
X-127975Y275658D01*
X-127595Y275781D01*
X-127200Y275844D01*
X-126800Y275844D01*
X-126405Y275781D01*
X-126025Y275658D01*
X-125669Y275476D01*
X-125345Y275241D01*
X-125063Y274959D01*
X-124828Y274635D01*
X-124646Y274279D01*
X-124523Y273899D01*
X-124460Y273504D01*
X-124460Y273104D01*
X129540Y221288D02*
X129477Y220893D01*
X129354Y220513D01*
X129172Y220157D01*
X128937Y219833D01*
X128655Y219551D01*
X128331Y219316D01*
X127975Y219134D01*
X127595Y219011D01*
X127200Y218948D01*
X126800Y218948D01*
X126405Y219011D01*
X126025Y219134D01*
X125669Y219316D01*
X125345Y219551D01*
X125063Y219833D01*
X124828Y220157D01*
X124646Y220513D01*
X124523Y220893D01*
X124460Y221288D01*
X124460Y221688D01*
X124523Y222083D01*
X124646Y222463D01*
X124828Y222819D01*
X125063Y223143D01*
X125345Y223425D01*
X125669Y223660D01*
X126025Y223842D01*
X126405Y223965D01*
X126800Y224028D01*
X127200Y224028D01*
X127595Y223965D01*
X127975Y223842D01*
X128331Y223660D01*
X128655Y223425D01*
X128937Y223143D01*
X129172Y222819D01*
X129354Y222463D01*
X129477Y222083D01*
X129540Y221688D01*
X129540Y221288D01*
X129540Y229924D02*
X129477Y229529D01*
X129354Y229149D01*
X129172Y228793D01*
X128937Y228469D01*
X128655Y228187D01*
X128331Y227952D01*
X127975Y227770D01*
X127595Y227647D01*
X127200Y227584D01*
X126800Y227584D01*
X126405Y227647D01*
X126025Y227770D01*
X125669Y227952D01*
X125345Y228187D01*
X125063Y228469D01*
X124828Y228793D01*
X124646Y229149D01*
X124523Y229529D01*
X124460Y229924D01*
X124460Y230324D01*
X124523Y230719D01*
X124646Y231099D01*
X124828Y231455D01*
X125063Y231779D01*
X125345Y232061D01*
X125669Y232296D01*
X126025Y232478D01*
X126405Y232601D01*
X126800Y232664D01*
X127200Y232664D01*
X127595Y232601D01*
X127975Y232478D01*
X128331Y232296D01*
X128655Y232061D01*
X128937Y231779D01*
X129172Y231455D01*
X129354Y231099D01*
X129477Y230719D01*
X129540Y230324D01*
X129540Y229924D01*
X129540Y238560D02*
X129477Y238165D01*
X129354Y237785D01*
X129172Y237429D01*
X128937Y237105D01*
X128655Y236823D01*
X128331Y236588D01*
X127975Y236406D01*
X127595Y236283D01*
X127200Y236220D01*
X126800Y236220D01*
X126405Y236283D01*
X126025Y236406D01*
X125669Y236588D01*
X125345Y236823D01*
X125063Y237105D01*
X124828Y237429D01*
X124646Y237785D01*
X124523Y238165D01*
X124460Y238560D01*
X124460Y238960D01*
X124523Y239355D01*
X124646Y239735D01*
X124828Y240091D01*
X125063Y240415D01*
X125345Y240697D01*
X125669Y240932D01*
X126025Y241114D01*
X126405Y241237D01*
X126800Y241300D01*
X127200Y241300D01*
X127595Y241237D01*
X127975Y241114D01*
X128331Y240932D01*
X128655Y240697D01*
X128937Y240415D01*
X129172Y240091D01*
X129354Y239735D01*
X129477Y239355D01*
X129540Y238960D01*
X129540Y238560D01*
X129540Y247196D02*
X129477Y246801D01*
X129354Y246421D01*
X129172Y246065D01*
X128937Y245741D01*
X128655Y245459D01*
X128331Y245224D01*
X127975Y245042D01*
X127595Y244919D01*
X127200Y244856D01*
X126800Y244856D01*
X126405Y244919D01*
X126025Y245042D01*
X125669Y245224D01*
X125345Y245459D01*
X125063Y245741D01*
X124828Y246065D01*
X124646Y246421D01*
X124523Y246801D01*
X124460Y247196D01*
X124460Y247596D01*
X124523Y247991D01*
X124646Y248371D01*
X124828Y248727D01*
X125063Y249051D01*
X125345Y249333D01*
X125669Y249568D01*
X126025Y249750D01*
X126405Y249873D01*
X126800Y249936D01*
X127200Y249936D01*
X127595Y249873D01*
X127975Y249750D01*
X128331Y249568D01*
X128655Y249333D01*
X128937Y249051D01*
X129172Y248727D01*
X129354Y248371D01*
X129477Y247991D01*
X129540Y247596D01*
X129540Y247196D01*
X129540Y255832D02*
X129477Y255437D01*
X129354Y255057D01*
X129172Y254701D01*
X128937Y254377D01*
X128655Y254095D01*
X128331Y253860D01*
X127975Y253678D01*
X127595Y253555D01*
X127200Y253492D01*
X126800Y253492D01*
X126405Y253555D01*
X126025Y253678D01*
X125669Y253860D01*
X125345Y254095D01*
X125063Y254377D01*
X124828Y254701D01*
X124646Y255057D01*
X124523Y255437D01*
X124460Y255832D01*
X124460Y256232D01*
X124523Y256627D01*
X124646Y257007D01*
X124828Y257363D01*
X125063Y257687D01*
X125345Y257969D01*
X125669Y258204D01*
X126025Y258386D01*
X126405Y258509D01*
X126800Y258572D01*
X127200Y258572D01*
X127595Y258509D01*
X127975Y258386D01*
X128331Y258204D01*
X128655Y257969D01*
X128937Y257687D01*
X129172Y257363D01*
X129354Y257007D01*
X129477Y256627D01*
X129540Y256232D01*
X129540Y255832D01*
X129540Y264468D02*
X129477Y264073D01*
X129354Y263693D01*
X129172Y263337D01*
X128937Y263013D01*
X128655Y262731D01*
X128331Y262496D01*
X127975Y262314D01*
X127595Y262191D01*
X127200Y262128D01*
X126800Y262128D01*
X126405Y262191D01*
X126025Y262314D01*
X125669Y262496D01*
X125345Y262731D01*
X125063Y263013D01*
X124828Y263337D01*
X124646Y263693D01*
X124523Y264073D01*
X124460Y264468D01*
X124460Y264868D01*
X124523Y265263D01*
X124646Y265643D01*
X124828Y265999D01*
X125063Y266323D01*
X125345Y266605D01*
X125669Y266840D01*
X126025Y267022D01*
X126405Y267145D01*
X126800Y267208D01*
X127200Y267208D01*
X127595Y267145D01*
X127975Y267022D01*
X128331Y266840D01*
X128655Y266605D01*
X128937Y266323D01*
X129172Y265999D01*
X129354Y265643D01*
X129477Y265263D01*
X129540Y264868D01*
X129540Y264468D01*
X129540Y273104D02*
X129477Y272709D01*
X129354Y272329D01*
X129172Y271973D01*
X128937Y271649D01*
X128655Y271367D01*
X128331Y271132D01*
X127975Y270950D01*
X127595Y270827D01*
X127200Y270764D01*
X126800Y270764D01*
X126405Y270827D01*
X126025Y270950D01*
X125669Y271132D01*
X125345Y271367D01*
X125063Y271649D01*
X124828Y271973D01*
X124646Y272329D01*
X124523Y272709D01*
X124460Y273104D01*
X124460Y273504D01*
X124523Y273899D01*
X124646Y274279D01*
X124828Y274635D01*
X125063Y274959D01*
X125345Y275241D01*
X125669Y275476D01*
X126025Y275658D01*
X126405Y275781D01*
X126800Y275844D01*
X127200Y275844D01*
X127595Y275781D01*
X127975Y275658D01*
X128331Y275476D01*
X128655Y275241D01*
X128937Y274959D01*
X129172Y274635D01*
X129354Y274279D01*
X129477Y273899D01*
X129540Y273504D01*
X129540Y273104D01*
X129540Y5896D02*
X129477Y5501D01*
X129354Y5121D01*
X129172Y4765D01*
X128937Y4441D01*
X128655Y4159D01*
X128331Y3924D01*
X127975Y3742D01*
X127595Y3619D01*
X127200Y3556D01*
X126800Y3556D01*
X126405Y3619D01*
X126025Y3742D01*
X125669Y3924D01*
X125345Y4159D01*
X125063Y4441D01*
X124828Y4765D01*
X124646Y5121D01*
X124523Y5501D01*
X124460Y5896D01*
X124460Y6296D01*
X124523Y6691D01*
X124646Y7071D01*
X124828Y7427D01*
X125063Y7751D01*
X125345Y8033D01*
X125669Y8268D01*
X126025Y8450D01*
X126405Y8573D01*
X126800Y8636D01*
X127200Y8636D01*
X127595Y8573D01*
X127975Y8450D01*
X128331Y8268D01*
X128655Y8033D01*
X128937Y7751D01*
X129172Y7427D01*
X129354Y7071D01*
X129477Y6691D01*
X129540Y6296D01*
X129540Y5896D01*
X129540Y14532D02*
X129477Y14137D01*
X129354Y13757D01*
X129172Y13401D01*
X128937Y13077D01*
X128655Y12795D01*
X128331Y12560D01*
X127975Y12378D01*
X127595Y12255D01*
X127200Y12192D01*
X126800Y12192D01*
X126405Y12255D01*
X126025Y12378D01*
X125669Y12560D01*
X125345Y12795D01*
X125063Y13077D01*
X124828Y13401D01*
X124646Y13757D01*
X124523Y14137D01*
X124460Y14532D01*
X124460Y14932D01*
X124523Y15327D01*
X124646Y15707D01*
X124828Y16063D01*
X125063Y16387D01*
X125345Y16669D01*
X125669Y16904D01*
X126025Y17086D01*
X126405Y17209D01*
X126800Y17272D01*
X127200Y17272D01*
X127595Y17209D01*
X127975Y17086D01*
X128331Y16904D01*
X128655Y16669D01*
X128937Y16387D01*
X129172Y16063D01*
X129354Y15707D01*
X129477Y15327D01*
X129540Y14932D01*
X129540Y14532D01*
X129540Y23168D02*
X129477Y22773D01*
X129354Y22393D01*
X129172Y22037D01*
X128937Y21713D01*
X128655Y21431D01*
X128331Y21196D01*
X127975Y21014D01*
X127595Y20891D01*
X127200Y20828D01*
X126800Y20828D01*
X126405Y20891D01*
X126025Y21014D01*
X125669Y21196D01*
X125345Y21431D01*
X125063Y21713D01*
X124828Y22037D01*
X124646Y22393D01*
X124523Y22773D01*
X124460Y23168D01*
X124460Y23568D01*
X124523Y23963D01*
X124646Y24343D01*
X124828Y24699D01*
X125063Y25023D01*
X125345Y25305D01*
X125669Y25540D01*
X126025Y25722D01*
X126405Y25845D01*
X126800Y25908D01*
X127200Y25908D01*
X127595Y25845D01*
X127975Y25722D01*
X128331Y25540D01*
X128655Y25305D01*
X128937Y25023D01*
X129172Y24699D01*
X129354Y24343D01*
X129477Y23963D01*
X129540Y23568D01*
X129540Y23168D01*
X129540Y31804D02*
X129477Y31409D01*
X129354Y31029D01*
X129172Y30673D01*
X128937Y30349D01*
X128655Y30067D01*
X128331Y29832D01*
X127975Y29650D01*
X127595Y29527D01*
X127200Y29464D01*
X126800Y29464D01*
X126405Y29527D01*
X126025Y29650D01*
X125669Y29832D01*
X125345Y30067D01*
X125063Y30349D01*
X124828Y30673D01*
X124646Y31029D01*
X124523Y31409D01*
X124460Y31804D01*
X124460Y32204D01*
X124523Y32599D01*
X124646Y32979D01*
X124828Y33335D01*
X125063Y33659D01*
X125345Y33941D01*
X125669Y34176D01*
X126025Y34358D01*
X126405Y34481D01*
X126800Y34544D01*
X127200Y34544D01*
X127595Y34481D01*
X127975Y34358D01*
X128331Y34176D01*
X128655Y33941D01*
X128937Y33659D01*
X129172Y33335D01*
X129354Y32979D01*
X129477Y32599D01*
X129540Y32204D01*
X129540Y31804D01*
X129540Y40440D02*
X129477Y40045D01*
X129354Y39665D01*
X129172Y39309D01*
X128937Y38985D01*
X128655Y38703D01*
X128331Y38468D01*
X127975Y38286D01*
X127595Y38163D01*
X127200Y38100D01*
X126800Y38100D01*
X126405Y38163D01*
X126025Y38286D01*
X125669Y38468D01*
X125345Y38703D01*
X125063Y38985D01*
X124828Y39309D01*
X124646Y39665D01*
X124523Y40045D01*
X124460Y40440D01*
X124460Y40840D01*
X124523Y41235D01*
X124646Y41615D01*
X124828Y41971D01*
X125063Y42295D01*
X125345Y42577D01*
X125669Y42812D01*
X126025Y42994D01*
X126405Y43117D01*
X126800Y43180D01*
X127200Y43180D01*
X127595Y43117D01*
X127975Y42994D01*
X128331Y42812D01*
X128655Y42577D01*
X128937Y42295D01*
X129172Y41971D01*
X129354Y41615D01*
X129477Y41235D01*
X129540Y40840D01*
X129540Y40440D01*
X129540Y49076D02*
X129477Y48681D01*
X129354Y48301D01*
X129172Y47945D01*
X128937Y47621D01*
X128655Y47339D01*
X128331Y47104D01*
X127975Y46922D01*
X127595Y46799D01*
X127200Y46736D01*
X126800Y46736D01*
X126405Y46799D01*
X126025Y46922D01*
X125669Y47104D01*
X125345Y47339D01*
X125063Y47621D01*
X124828Y47945D01*
X124646Y48301D01*
X124523Y48681D01*
X124460Y49076D01*
X124460Y49476D01*
X124523Y49871D01*
X124646Y50251D01*
X124828Y50607D01*
X125063Y50931D01*
X125345Y51213D01*
X125669Y51448D01*
X126025Y51630D01*
X126405Y51753D01*
X126800Y51816D01*
X127200Y51816D01*
X127595Y51753D01*
X127975Y51630D01*
X128331Y51448D01*
X128655Y51213D01*
X128937Y50931D01*
X129172Y50607D01*
X129354Y50251D01*
X129477Y49871D01*
X129540Y49476D01*
X129540Y49076D01*
X129540Y57712D02*
X129477Y57317D01*
X129354Y56937D01*
X129172Y56581D01*
X128937Y56257D01*
X128655Y55975D01*
X128331Y55740D01*
X127975Y55558D01*
X127595Y55435D01*
X127200Y55372D01*
X126800Y55372D01*
X126405Y55435D01*
X126025Y55558D01*
X125669Y55740D01*
X125345Y55975D01*
X125063Y56257D01*
X124828Y56581D01*
X124646Y56937D01*
X124523Y57317D01*
X124460Y57712D01*
X124460Y58112D01*
X124523Y58507D01*
X124646Y58887D01*
X124828Y59243D01*
X125063Y59567D01*
X125345Y59849D01*
X125669Y60084D01*
X126025Y60266D01*
X126405Y60389D01*
X126800Y60452D01*
X127200Y60452D01*
X127595Y60389D01*
X127975Y60266D01*
X128331Y60084D01*
X128655Y59849D01*
X128937Y59567D01*
X129172Y59243D01*
X129354Y58887D01*
X129477Y58507D01*
X129540Y58112D01*
X129540Y57712D01*
X-124460Y5896D02*
X-124523Y5501D01*
X-124646Y5121D01*
X-124828Y4765D01*
X-125063Y4441D01*
X-125345Y4159D01*
X-125669Y3924D01*
X-126025Y3742D01*
X-126405Y3619D01*
X-126800Y3556D01*
X-127200Y3556D01*
X-127595Y3619D01*
X-127975Y3742D01*
X-128331Y3924D01*
X-128655Y4159D01*
X-128937Y4441D01*
X-129172Y4765D01*
X-129354Y5121D01*
X-129477Y5501D01*
X-129540Y5896D01*
X-129540Y6296D01*
X-129477Y6691D01*
X-129354Y7071D01*
X-129172Y7427D01*
X-128937Y7751D01*
X-128655Y8033D01*
X-128331Y8268D01*
X-127975Y8450D01*
X-127595Y8573D01*
X-127200Y8636D01*
X-126800Y8636D01*
X-126405Y8573D01*
X-126025Y8450D01*
X-125669Y8268D01*
X-125345Y8033D01*
X-125063Y7751D01*
X-124828Y7427D01*
X-124646Y7071D01*
X-124523Y6691D01*
X-124460Y6296D01*
X-124460Y5896D01*
X-124460Y14532D02*
X-124523Y14137D01*
X-124646Y13757D01*
X-124828Y13401D01*
X-125063Y13077D01*
X-125345Y12795D01*
X-125669Y12560D01*
X-126025Y12378D01*
X-126405Y12255D01*
X-126800Y12192D01*
X-127200Y12192D01*
X-127595Y12255D01*
X-127975Y12378D01*
X-128331Y12560D01*
X-128655Y12795D01*
X-128937Y13077D01*
X-129172Y13401D01*
X-129354Y13757D01*
X-129477Y14137D01*
X-129540Y14532D01*
X-129540Y14932D01*
X-129477Y15327D01*
X-129354Y15707D01*
X-129172Y16063D01*
X-128937Y16387D01*
X-128655Y16669D01*
X-128331Y16904D01*
X-127975Y17086D01*
X-127595Y17209D01*
X-127200Y17272D01*
X-126800Y17272D01*
X-126405Y17209D01*
X-126025Y17086D01*
X-125669Y16904D01*
X-125345Y16669D01*
X-125063Y16387D01*
X-124828Y16063D01*
X-124646Y15707D01*
X-124523Y15327D01*
X-124460Y14932D01*
X-124460Y14532D01*
X-124460Y23168D02*
X-124523Y22773D01*
X-124646Y22393D01*
X-124828Y22037D01*
X-125063Y21713D01*
X-125345Y21431D01*
X-125669Y21196D01*
X-126025Y21014D01*
X-126405Y20891D01*
X-126800Y20828D01*
X-127200Y20828D01*
X-127595Y20891D01*
X-127975Y21014D01*
X-128331Y21196D01*
X-128655Y21431D01*
X-128937Y21713D01*
X-129172Y22037D01*
X-129354Y22393D01*
X-129477Y22773D01*
X-129540Y23168D01*
X-129540Y23568D01*
X-129477Y23963D01*
X-129354Y24343D01*
X-129172Y24699D01*
X-128937Y25023D01*
X-128655Y25305D01*
X-128331Y25540D01*
X-127975Y25722D01*
X-127595Y25845D01*
X-127200Y25908D01*
X-126800Y25908D01*
X-126405Y25845D01*
X-126025Y25722D01*
X-125669Y25540D01*
X-125345Y25305D01*
X-125063Y25023D01*
X-124828Y24699D01*
X-124646Y24343D01*
X-124523Y23963D01*
X-124460Y23568D01*
X-124460Y23168D01*
X-124460Y31804D02*
X-124523Y31409D01*
X-124646Y31029D01*
X-124828Y30673D01*
X-125063Y30349D01*
X-125345Y30067D01*
X-125669Y29832D01*
X-126025Y29650D01*
X-126405Y29527D01*
X-126800Y29464D01*
X-127200Y29464D01*
X-127595Y29527D01*
X-127975Y29650D01*
X-128331Y29832D01*
X-128655Y30067D01*
X-128937Y30349D01*
X-129172Y30673D01*
X-129354Y31029D01*
X-129477Y31409D01*
X-129540Y31804D01*
X-129540Y32204D01*
X-129477Y32599D01*
X-129354Y32979D01*
X-129172Y33335D01*
X-128937Y33659D01*
X-128655Y33941D01*
X-128331Y34176D01*
X-127975Y34358D01*
X-127595Y34481D01*
X-127200Y34544D01*
X-126800Y34544D01*
X-126405Y34481D01*
X-126025Y34358D01*
X-125669Y34176D01*
X-125345Y33941D01*
X-125063Y33659D01*
X-124828Y33335D01*
X-124646Y32979D01*
X-124523Y32599D01*
X-124460Y32204D01*
X-124460Y31804D01*
X-124460Y40440D02*
X-124523Y40045D01*
X-124646Y39665D01*
X-124828Y39309D01*
X-125063Y38985D01*
X-125345Y38703D01*
X-125669Y38468D01*
X-126025Y38286D01*
X-126405Y38163D01*
X-126800Y38100D01*
X-127200Y38100D01*
X-127595Y38163D01*
X-127975Y38286D01*
X-128331Y38468D01*
X-128655Y38703D01*
X-128937Y38985D01*
X-129172Y39309D01*
X-129354Y39665D01*
X-129477Y40045D01*
X-129540Y40440D01*
X-129540Y40840D01*
X-129477Y41235D01*
X-129354Y41615D01*
X-129172Y41971D01*
X-128937Y42295D01*
X-128655Y42577D01*
X-128331Y42812D01*
X-127975Y42994D01*
X-127595Y43117D01*
X-127200Y43180D01*
X-126800Y43180D01*
X-126405Y43117D01*
X-126025Y42994D01*
X-125669Y42812D01*
X-125345Y42577D01*
X-125063Y42295D01*
X-124828Y41971D01*
X-124646Y41615D01*
X-124523Y41235D01*
X-124460Y40840D01*
X-124460Y40440D01*
X-124460Y49076D02*
X-124523Y48681D01*
X-124646Y48301D01*
X-124828Y47945D01*
X-125063Y47621D01*
X-125345Y47339D01*
X-125669Y47104D01*
X-126025Y46922D01*
X-126405Y46799D01*
X-126800Y46736D01*
X-127200Y46736D01*
X-127595Y46799D01*
X-127975Y46922D01*
X-128331Y47104D01*
X-128655Y47339D01*
X-128937Y47621D01*
X-129172Y47945D01*
X-129354Y48301D01*
X-129477Y48681D01*
X-129540Y49076D01*
X-129540Y49476D01*
X-129477Y49871D01*
X-129354Y50251D01*
X-129172Y50607D01*
X-128937Y50931D01*
X-128655Y51213D01*
X-128331Y51448D01*
X-127975Y51630D01*
X-127595Y51753D01*
X-127200Y51816D01*
X-126800Y51816D01*
X-126405Y51753D01*
X-126025Y51630D01*
X-125669Y51448D01*
X-125345Y51213D01*
X-125063Y50931D01*
X-124828Y50607D01*
X-124646Y50251D01*
X-124523Y49871D01*
X-124460Y49476D01*
X-124460Y49076D01*
X-124460Y57712D02*
X-124523Y57317D01*
X-124646Y56937D01*
X-124828Y56581D01*
X-125063Y56257D01*
X-125345Y55975D01*
X-125669Y55740D01*
X-126025Y55558D01*
X-126405Y55435D01*
X-126800Y55372D01*
X-127200Y55372D01*
X-127595Y55435D01*
X-127975Y55558D01*
X-128331Y55740D01*
X-128655Y55975D01*
X-128937Y56257D01*
X-129172Y56581D01*
X-129354Y56937D01*
X-129477Y57317D01*
X-129540Y57712D01*
X-129540Y58112D01*
X-129477Y58507D01*
X-129354Y58887D01*
X-129172Y59243D01*
X-128937Y59567D01*
X-128655Y59849D01*
X-128331Y60084D01*
X-127975Y60266D01*
X-127595Y60389D01*
X-127200Y60452D01*
X-126800Y60452D01*
X-126405Y60389D01*
X-126025Y60266D01*
X-125669Y60084D01*
X-125345Y59849D01*
X-125063Y59567D01*
X-124828Y59243D01*
X-124646Y58887D01*
X-124523Y58507D01*
X-124460Y58112D01*
X-124460Y57712D01*
M02*
