G04 EAGLE Gerber RS-274X export*
G75*
%MOMM*%
%FSLAX34Y34*%
%LPD*%
%INSolderpaste Top*%
%IPPOS*%
%AMOC8*
5,1,8,0,0,1.08239X$1,22.5*%
G01*
%ADD10R,1.600000X1.800000*%
%ADD11C,0.250000*%
%ADD12C,1.200000*%
%ADD13R,2.500000X3.200000*%
%ADD14R,1.000000X1.100000*%
%ADD15C,0.510000*%
%ADD16R,1.100000X1.000000*%


D10*
X-19080Y114300D03*
X8920Y114300D03*
X97820Y114300D03*
X69820Y114300D03*
D11*
X-1250Y201320D02*
X-1250Y210820D01*
X1250Y210820D01*
X1250Y201320D01*
X-1250Y201320D01*
X-1250Y203695D02*
X1250Y203695D01*
X1250Y206070D02*
X-1250Y206070D01*
X-1250Y208445D02*
X1250Y208445D01*
X1250Y210820D02*
X-1250Y210820D01*
X-13950Y210820D02*
X-13950Y201320D01*
X-13950Y210820D02*
X-11450Y210820D01*
X-11450Y201320D01*
X-13950Y201320D01*
X-13950Y203695D02*
X-11450Y203695D01*
X-11450Y206070D02*
X-13950Y206070D01*
X-13950Y208445D02*
X-11450Y208445D01*
X-11450Y210820D02*
X-13950Y210820D01*
X-26650Y210820D02*
X-26650Y201320D01*
X-26650Y210820D02*
X-24150Y210820D01*
X-24150Y201320D01*
X-26650Y201320D01*
X-26650Y203695D02*
X-24150Y203695D01*
X-24150Y206070D02*
X-26650Y206070D01*
X-26650Y208445D02*
X-24150Y208445D01*
X-24150Y210820D02*
X-26650Y210820D01*
X-39350Y210820D02*
X-39350Y201320D01*
X-39350Y210820D02*
X-36850Y210820D01*
X-36850Y201320D01*
X-39350Y201320D01*
X-39350Y203695D02*
X-36850Y203695D01*
X-36850Y206070D02*
X-39350Y206070D01*
X-39350Y208445D02*
X-36850Y208445D01*
X-36850Y210820D02*
X-39350Y210820D01*
X-39350Y156820D02*
X-39350Y147320D01*
X-39350Y156820D02*
X-36850Y156820D01*
X-36850Y147320D01*
X-39350Y147320D01*
X-39350Y149695D02*
X-36850Y149695D01*
X-36850Y152070D02*
X-39350Y152070D01*
X-39350Y154445D02*
X-36850Y154445D01*
X-36850Y156820D02*
X-39350Y156820D01*
X-26650Y156820D02*
X-26650Y147320D01*
X-26650Y156820D02*
X-24150Y156820D01*
X-24150Y147320D01*
X-26650Y147320D01*
X-26650Y149695D02*
X-24150Y149695D01*
X-24150Y152070D02*
X-26650Y152070D01*
X-26650Y154445D02*
X-24150Y154445D01*
X-24150Y156820D02*
X-26650Y156820D01*
X-13950Y156820D02*
X-13950Y147320D01*
X-13950Y156820D02*
X-11450Y156820D01*
X-11450Y147320D01*
X-13950Y147320D01*
X-13950Y149695D02*
X-11450Y149695D01*
X-11450Y152070D02*
X-13950Y152070D01*
X-13950Y154445D02*
X-11450Y154445D01*
X-11450Y156820D02*
X-13950Y156820D01*
X-1250Y156820D02*
X-1250Y147320D01*
X-1250Y156820D02*
X1250Y156820D01*
X1250Y147320D01*
X-1250Y147320D01*
X-1250Y149695D02*
X1250Y149695D01*
X1250Y152070D02*
X-1250Y152070D01*
X-1250Y154445D02*
X1250Y154445D01*
X1250Y156820D02*
X-1250Y156820D01*
D12*
X-8550Y185070D02*
X-29550Y185070D01*
X-8550Y185070D02*
X-8550Y173070D01*
X-29550Y173070D01*
X-29550Y185070D01*
X-29550Y184470D02*
X-8550Y184470D01*
D13*
X42620Y224790D03*
X99620Y224790D03*
D14*
X-26670Y228990D03*
X-26670Y245990D03*
X19050Y154060D03*
X19050Y171060D03*
D15*
X38500Y167530D02*
X50400Y167530D01*
X38500Y167530D02*
X38500Y187430D01*
X50400Y187430D01*
X50400Y167530D01*
X50400Y172375D02*
X38500Y172375D01*
X38500Y177220D02*
X50400Y177220D01*
X50400Y182065D02*
X38500Y182065D01*
X38500Y186910D02*
X50400Y186910D01*
X50400Y127530D02*
X38500Y127530D01*
X38500Y147430D01*
X50400Y147430D01*
X50400Y127530D01*
X50400Y132375D02*
X38500Y132375D01*
X38500Y137220D02*
X50400Y137220D01*
X50400Y142065D02*
X38500Y142065D01*
X38500Y146910D02*
X50400Y146910D01*
D16*
X-68970Y210820D03*
X-85970Y210820D03*
D14*
X-54610Y228210D03*
X-54610Y211210D03*
X-40640Y228990D03*
X-40640Y245990D03*
D16*
X-58030Y132080D03*
X-41030Y132080D03*
D14*
X1270Y228990D03*
X1270Y245990D03*
X-12700Y228990D03*
X-12700Y245990D03*
M02*
