G04 EAGLE Gerber RS-274X export*
G75*
%MOMM*%
%FSLAX34Y34*%
%LPD*%
%INSoldermask Top*%
%IPPOS*%
%AMOC8*
5,1,8,0,0,1.08239X$1,22.5*%
G01*
<<<<<<< HEAD
%ADD10C,0.711200*%
=======
%ADD10C,0.553200*%
>>>>>>> ...
%ADD11R,1.803200X2.003200*%
%ADD12C,0.450047*%
%ADD13C,1.405725*%
%ADD14R,2.703200X3.403200*%
%ADD15R,1.203200X1.303200*%
%ADD16C,0.704181*%
%ADD17R,1.303200X1.203200*%
%ADD18C,2.703200*%
%ADD19C,6.003200*%
%ADD20C,1.311200*%


D10*
X-127000Y221488D03*
X-127000Y230124D03*
X-127000Y238760D03*
X-127000Y247396D03*
X-127000Y256032D03*
X-127000Y264668D03*
X-127000Y273304D03*
X127000Y221488D03*
X127000Y230124D03*
X127000Y238760D03*
X127000Y247396D03*
X127000Y256032D03*
X127000Y264668D03*
X127000Y273304D03*
X127000Y6096D03*
X127000Y14732D03*
X127000Y23368D03*
X127000Y32004D03*
X127000Y40640D03*
X127000Y49276D03*
X127000Y57912D03*
X-127000Y6096D03*
X-127000Y14732D03*
X-127000Y23368D03*
X-127000Y32004D03*
X-127000Y40640D03*
X-127000Y49276D03*
X-127000Y57912D03*
D11*
X-19080Y114300D03*
X8920Y114300D03*
X97820Y114300D03*
X69820Y114300D03*
D12*
X-1266Y201304D02*
X-1266Y210836D01*
X1266Y210836D01*
X1266Y201304D01*
X-1266Y201304D01*
X-1266Y205579D02*
X1266Y205579D01*
X1266Y209854D02*
X-1266Y209854D01*
X-13966Y210836D02*
X-13966Y201304D01*
X-13966Y210836D02*
X-11434Y210836D01*
X-11434Y201304D01*
X-13966Y201304D01*
X-13966Y205579D02*
X-11434Y205579D01*
X-11434Y209854D02*
X-13966Y209854D01*
X-26666Y210836D02*
X-26666Y201304D01*
X-26666Y210836D02*
X-24134Y210836D01*
X-24134Y201304D01*
X-26666Y201304D01*
X-26666Y205579D02*
X-24134Y205579D01*
X-24134Y209854D02*
X-26666Y209854D01*
X-39366Y210836D02*
X-39366Y201304D01*
X-39366Y210836D02*
X-36834Y210836D01*
X-36834Y201304D01*
X-39366Y201304D01*
X-39366Y205579D02*
X-36834Y205579D01*
X-36834Y209854D02*
X-39366Y209854D01*
X-39366Y156836D02*
X-39366Y147304D01*
X-39366Y156836D02*
X-36834Y156836D01*
X-36834Y147304D01*
X-39366Y147304D01*
X-39366Y151579D02*
X-36834Y151579D01*
X-36834Y155854D02*
X-39366Y155854D01*
X-26666Y156836D02*
X-26666Y147304D01*
X-26666Y156836D02*
X-24134Y156836D01*
X-24134Y147304D01*
X-26666Y147304D01*
X-26666Y151579D02*
X-24134Y151579D01*
X-24134Y155854D02*
X-26666Y155854D01*
X-13966Y156836D02*
X-13966Y147304D01*
X-13966Y156836D02*
X-11434Y156836D01*
X-11434Y147304D01*
X-13966Y147304D01*
X-13966Y151579D02*
X-11434Y151579D01*
X-11434Y155854D02*
X-13966Y155854D01*
X-1266Y156836D02*
X-1266Y147304D01*
X-1266Y156836D02*
X1266Y156836D01*
X1266Y147304D01*
X-1266Y147304D01*
X-1266Y151579D02*
X1266Y151579D01*
X1266Y155854D02*
X-1266Y155854D01*
D13*
X-8562Y185058D02*
X-29538Y185058D01*
X-8562Y185058D02*
X-8562Y173082D01*
X-29538Y173082D01*
X-29538Y185058D01*
D14*
X42620Y224790D03*
X99620Y224790D03*
D15*
X-26670Y228990D03*
X-26670Y245990D03*
X19050Y154060D03*
X19050Y171060D03*
D16*
X38455Y167485D02*
X50445Y167485D01*
X38455Y167485D02*
X38455Y187475D01*
X50445Y187475D01*
X50445Y167485D01*
X50445Y174175D02*
X38455Y174175D01*
X38455Y180865D02*
X50445Y180865D01*
X50445Y127485D02*
X38455Y127485D01*
X38455Y147475D01*
X50445Y147475D01*
X50445Y127485D01*
X50445Y134175D02*
X38455Y134175D01*
X38455Y140865D02*
X50445Y140865D01*
D17*
X-68970Y210820D03*
X-85970Y210820D03*
D15*
X-54610Y228210D03*
X-54610Y211210D03*
X-40640Y228990D03*
X-40640Y245990D03*
D17*
X-58030Y132080D03*
X-41030Y132080D03*
D15*
X1270Y228990D03*
X1270Y245990D03*
X-12700Y228990D03*
X-12700Y245990D03*
D18*
X-76200Y44450D03*
X-25400Y44450D03*
X25400Y44450D03*
X76200Y44450D03*
D19*
X-162560Y31750D03*
D20*
X-162560Y53750D03*
X-162560Y9750D03*
X-184560Y31750D03*
X-140560Y31750D03*
X-147060Y47250D03*
X-147060Y16250D03*
X-178060Y47250D03*
X-178060Y16250D03*
D19*
X-162560Y247650D03*
D20*
X-162560Y269650D03*
X-162560Y225650D03*
X-184560Y247650D03*
X-140560Y247650D03*
X-147060Y263150D03*
X-147060Y232150D03*
X-178060Y263150D03*
X-178060Y232150D03*
D19*
X161290Y31750D03*
D20*
X161290Y53750D03*
X161290Y9750D03*
X139290Y31750D03*
X183290Y31750D03*
X176790Y47250D03*
X176790Y16250D03*
X145790Y47250D03*
X145790Y16250D03*
D19*
X161290Y247650D03*
D20*
X161290Y269650D03*
X161290Y225650D03*
X139290Y247650D03*
X183290Y247650D03*
X176790Y263150D03*
X176790Y232150D03*
X145790Y263150D03*
X145790Y232150D03*
M02*
