G04 EAGLE Gerber RS-274X export*
G75*
%MOMM*%
%FSLAX34Y34*%
%LPD*%
%INSoldermask Bottom*%
%IPPOS*%
%AMOC8*
5,1,8,0,0,1.08239X$1,22.5*%
G01*
%ADD10C,0.711200*%
%ADD11C,2.703200*%
%ADD12C,6.003200*%
%ADD13C,1.311200*%


D10*
X-127000Y221488D03*
X-127000Y230124D03*
X-127000Y238760D03*
X-127000Y247396D03*
X-127000Y256032D03*
X-127000Y264668D03*
X-127000Y273304D03*
X127000Y221488D03*
X127000Y230124D03*
X127000Y238760D03*
X127000Y247396D03*
X127000Y256032D03*
X127000Y264668D03*
X127000Y273304D03*
X127000Y6096D03*
X127000Y14732D03*
X127000Y23368D03*
X127000Y32004D03*
X127000Y40640D03*
X127000Y49276D03*
X127000Y57912D03*
X-127000Y6096D03*
X-127000Y14732D03*
X-127000Y23368D03*
X-127000Y32004D03*
X-127000Y40640D03*
X-127000Y49276D03*
X-127000Y57912D03*
D11*
X-76200Y44450D03*
X-25400Y44450D03*
X25400Y44450D03*
X76200Y44450D03*
D12*
X-162560Y31750D03*
D13*
X-162560Y53750D03*
X-162560Y9750D03*
X-184560Y31750D03*
X-140560Y31750D03*
X-147060Y47250D03*
X-147060Y16250D03*
X-178060Y47250D03*
X-178060Y16250D03*
D12*
X-162560Y247650D03*
D13*
X-162560Y269650D03*
X-162560Y225650D03*
X-184560Y247650D03*
X-140560Y247650D03*
X-147060Y263150D03*
X-147060Y232150D03*
X-178060Y263150D03*
X-178060Y232150D03*
D12*
X161290Y31750D03*
D13*
X161290Y53750D03*
X161290Y9750D03*
X139290Y31750D03*
X183290Y31750D03*
X176790Y47250D03*
X176790Y16250D03*
X145790Y47250D03*
X145790Y16250D03*
D12*
X161290Y247650D03*
D13*
X161290Y269650D03*
X161290Y225650D03*
X139290Y247650D03*
X183290Y247650D03*
X176790Y263150D03*
X176790Y232150D03*
X145790Y263150D03*
X145790Y232150D03*
M02*
